<svg width="41" height="40" viewBox="0 0 41 40" fill="none" xmlns="http://www.w3.org/2000/svg">
<circle opacity="0.4" cx="20.5" cy="20" r="20" fill="#00D1FF"/>
<g opacity="0.8">
<path d="M14.6693 17.5H14.2526C13.4669 17.5 13.0741 17.5 12.83 17.7441C12.5859 17.9882 12.5859 18.381 12.5859 19.1667V26.25C12.5859 27.0357 12.5859 27.4285 12.83 27.6726C13.0741 27.9167 13.4669 27.9167 14.2526 27.9167H14.6693C15.4549 27.9167 15.8478 27.9167 16.0919 27.6726C16.3359 27.4285 16.3359 27.0357 16.3359 26.25V19.1667C16.3359 18.381 16.3359 17.9882 16.0919 17.7441C15.8478 17.5 15.4549 17.5 14.6693 17.5Z" fill="white"/>
<path d="M16.3359 13.958C16.3359 14.9935 15.4965 15.833 14.4609 15.833C13.4254 15.833 12.5859 14.9935 12.5859 13.958C12.5859 12.9225 13.4254 12.083 14.4609 12.083C15.4965 12.083 16.3359 12.9225 16.3359 13.958Z" fill="white"/>
<path d="M20.355 17.5H19.6667C18.881 17.5 18.4882 17.5 18.2441 17.7441C18 17.9882 18 18.381 18 19.1667V26.25C18 27.0357 18 27.4285 18.2441 27.6726C18.4882 27.9167 18.881 27.9167 19.6667 27.9167H20.0833C20.869 27.9167 21.2618 27.9167 21.5059 27.6726C21.75 27.4285 21.75 27.0357 21.75 26.25L21.7501 23.3334C21.7501 21.9527 22.1901 20.8334 23.4899 20.8334C24.1398 20.8334 24.6667 21.3931 24.6667 22.0834V25.8334C24.6667 26.6191 24.6667 27.0119 24.9107 27.256C25.1547 27.5001 25.5477 27.5001 26.3333 27.5001H26.7489C27.5344 27.5001 27.9272 27.5001 28.1712 27.2561C28.4153 27.0121 28.4154 26.6193 28.4156 25.8338L28.4167 21.2502C28.4167 19.1792 26.447 17.5002 24.4973 17.5002C23.3874 17.5002 22.3973 18.0442 21.7501 18.895C21.75 18.3699 21.75 18.1074 21.636 17.9125C21.5638 17.789 21.4609 17.6863 21.3375 17.6141C21.1426 17.5 20.8801 17.5 20.355 17.5Z" fill="white"/>
</g>
</svg>
