<svg width="41" height="40" viewBox="0 0 41 40" fill="none" xmlns="http://www.w3.org/2000/svg">
<circle opacity="0.4" cx="20.5" cy="20" r="20" fill="#00D1FF"/>
<g opacity="0.8">
<path d="M12.4641 12.3176C12.603 12.0459 12.8824 11.875 13.1875 11.875H17.25C17.5109 11.875 17.7559 12.0003 17.9087 12.2118L28.4712 26.8367C28.6498 27.0842 28.6748 27.4108 28.5359 27.6824C28.397 27.9541 28.1176 28.125 27.8125 28.125H23.75C23.4891 28.125 23.2441 27.9998 23.0913 27.7882L12.5288 13.1632C12.3502 12.9159 12.3252 12.5893 12.4641 12.3176Z" fill="white"/>
<path d="M12.613 26.738L27.238 12.113C27.5552 11.7957 28.0697 11.7957 28.387 12.113C28.7043 12.4303 28.7043 12.9447 28.387 13.262L13.762 27.887C13.4447 28.2043 12.9303 28.2043 12.613 27.887C12.2957 27.5697 12.2957 27.0552 12.613 26.738Z" fill="white"/>
</g>
</svg>
