<svg width="41" height="40" viewBox="0 0 41 40" fill="none" xmlns="http://www.w3.org/2000/svg">
<circle cx="20.5" cy="20" r="20" fill="#00D1FF"/>
<path d="M20.4975 12.292C18.9487 12.292 17.4606 12.445 16.0781 12.7268L15.972 12.7484C14.3932 13.0697 13.3412 13.2839 12.4346 14.4494C11.5378 15.6025 11.5383 16.9397 11.5391 19.0107V20.99C11.5383 23.061 11.5378 24.3982 12.4346 25.5512C13.3412 26.7168 14.3932 26.9309 15.972 27.2522L16.0781 27.2739C17.4606 27.5557 18.9487 27.7087 20.4975 27.7087C22.0463 27.7087 23.5343 27.5557 24.9168 27.2739L25.0229 27.2522C26.6018 26.9309 27.6538 26.7168 28.5603 25.5512C29.4572 24.3982 29.4567 23.061 29.4558 20.99V19.0107C29.4567 16.9397 29.4572 15.6025 28.5603 14.4494C27.6538 13.2839 26.6018 13.0697 25.0229 12.7484L24.9168 12.7268C23.5343 12.445 22.0463 12.292 20.4975 12.292Z" fill="white"/>
<path d="M21.5083 17.7101C20.8666 17.3517 20.3417 17.0585 19.9096 16.8772C19.2071 16.5824 18.4622 16.5585 17.8499 17.0602C17.4667 17.3741 17.3312 17.8237 17.2718 18.2768C17.1281 19.3722 17.1282 20.629 17.2718 21.7239C17.3312 22.1769 17.4667 22.6265 17.8499 22.9405C18.4622 23.4422 19.2071 23.4182 19.9096 23.1235C20.3417 22.9421 20.8666 22.649 21.5083 22.2906C22.0099 22.0105 22.5253 21.7417 22.9932 21.4053C23.3429 21.1539 23.6747 20.8423 23.7845 20.3879C23.8462 20.1328 23.8462 19.8678 23.7845 19.6127C23.6747 19.1583 23.3429 18.8467 22.9932 18.5953C22.5253 18.2589 22.0099 17.9902 21.5083 17.7101Z" fill="#00D1FF"/>
</svg>
